HIERARCHY
ROOT Hips
{
	OFFSET -14.64140 90.27770 -84.91600
	CHANNELS 6 Xposition Yposition Zposition Zrotation Xrotation Yrotation
	JOINT Spine
	{
		OFFSET 0.00000 13.20850 -1.60436
		CHANNELS 3 Zrotation Xrotation Yrotation
		JOINT Spine1
		{
			OFFSET 0.00000 8.61716 0.00000
			CHANNELS 3 Zrotation Xrotation Yrotation
			JOINT Spine2
			{
				OFFSET 0.00000 8.61717 0.00000
				CHANNELS 3 Zrotation Xrotation Yrotation
				JOINT Spine3
				{
					OFFSET 0.00000 8.61717 0.00000
					CHANNELS 3 Zrotation Xrotation Yrotation
					JOINT Neck
					{
						OFFSET 0.00000 11.07920 1.10792
						CHANNELS 3 Zrotation Xrotation Yrotation
						JOINT Neck1
						{
							OFFSET 0.00000 7.08032 0.00000
							CHANNELS 3 Zrotation Xrotation Yrotation
							JOINT Head
							{
								OFFSET 0.00000 7.08031 0.00000
								CHANNELS 3 Zrotation Xrotation Yrotation
								End site
								{
									OFFSET 0.00000 0.00000 0.00000
								}
							}
						}
					}
					JOINT RightShoulder
					{
						OFFSET -0.01000 7.91373 5.19711
						CHANNELS 3 Zrotation Xrotation Yrotation
						JOINT RightArm
						{
							OFFSET -18.41580 0.00000 0.00000
							CHANNELS 3 Zrotation Xrotation Yrotation
							JOINT RightForeArm
							{
								OFFSET -29.11090 0.00000 0.00000
								CHANNELS 3 Zrotation Xrotation Yrotation
								JOINT RightHand
								{
									OFFSET -24.65040 0.00000 0.00000
									CHANNELS 3 Zrotation Xrotation Yrotation
									JOINT RightHandThumb1
									{
										OFFSET -5.35114 -0.85590 3.97906
										CHANNELS 3 Zrotation Xrotation Yrotation
										JOINT RightHandThumb2
										{
											OFFSET -4.52789 0.00000 0.00000
											CHANNELS 3 Zrotation Xrotation Yrotation
											JOINT RightHandThumb3
											{
												OFFSET -2.46976 0.00000 0.00000
												CHANNELS 3 Zrotation Xrotation Yrotation
												End site
												{
													OFFSET 0.00000 0.00000 0.00000
												}
											}
										}
									}
									JOINT RightHandIndex1
									{
										OFFSET -14.26970 0.00000 2.88139
										CHANNELS 3 Zrotation Xrotation Yrotation
										JOINT RightHandIndex2
										{
											OFFSET -5.48836 0.00000 0.00000
											CHANNELS 3 Zrotation Xrotation Yrotation
											JOINT RightHandIndex3
											{
												OFFSET -3.01859 0.00000 0.00000
												CHANNELS 3 Zrotation Xrotation Yrotation
												End site
												{
													OFFSET 0.00000 0.00000 0.00000
												}
											}
										}
									}
									JOINT RightHandMiddle1
									{
										OFFSET -14.26970 0.00000 -0.09147
										CHANNELS 3 Zrotation Xrotation Yrotation
										JOINT RightHandMiddle2
										{
											OFFSET -6.17441 0.00000 0.00000
											CHANNELS 3 Zrotation Xrotation Yrotation
											JOINT RightHandMiddle3
											{
												OFFSET -3.56743 0.00000 0.00000
												CHANNELS 3 Zrotation Xrotation Yrotation
												End site
												{
													OFFSET 0.00000 0.00000 0.00000
												}
											}
										}
									}
									JOINT RightHandRing1
									{
										OFFSET -12.69180 0.00000 -3.06433
										CHANNELS 3 Zrotation Xrotation Yrotation
										JOINT RightHandRing2
										{
											OFFSET -5.62556 0.00000 0.00000
											CHANNELS 3 Zrotation Xrotation Yrotation
											JOINT RightHandRing3
											{
												OFFSET -3.56744 0.00000 0.00000
												CHANNELS 3 Zrotation Xrotation Yrotation
												End site
												{
													OFFSET 0.00000 0.00000 0.00000
												}
											}
										}
									}
									JOINT RightHandPinky1
									{
										OFFSET -11.11390 0.00000 -6.03719
										CHANNELS 3 Zrotation Xrotation Yrotation
										JOINT RightHandPinky2
										{
											OFFSET -4.52789 0.00000 0.00000
											CHANNELS 3 Zrotation Xrotation Yrotation
											JOINT RightHandPinky3
											{
												OFFSET -2.46976 0.00000 0.00000
												CHANNELS 3 Zrotation Xrotation Yrotation
												End site
												{
													OFFSET 0.00000 0.00000 0.00000
												}
											}
										}
									}
								}
							}
						}
					}
					JOINT LeftShoulder
					{
						OFFSET 0.01000 7.91373 5.19711
						CHANNELS 3 Zrotation Xrotation Yrotation
						JOINT LeftArm
						{
							OFFSET 18.41580 0.00000 0.00000
							CHANNELS 3 Zrotation Xrotation Yrotation
							JOINT LeftForeArm
							{
								OFFSET 29.11090 0.00000 0.00000
								CHANNELS 3 Zrotation Xrotation Yrotation
								JOINT LeftHand
								{
									OFFSET 24.65040 0.00000 0.00000
									CHANNELS 3 Zrotation Xrotation Yrotation
									JOINT LeftHandThumb1
									{
										OFFSET 5.35114 -0.85590 3.97906
										CHANNELS 3 Zrotation Xrotation Yrotation
										JOINT LeftHandThumb2
										{
											OFFSET 4.52789 0.00000 0.00000
											CHANNELS 3 Zrotation Xrotation Yrotation
											JOINT LeftHandThumb3
											{
												OFFSET 2.46977 0.00000 0.00000
												CHANNELS 3 Zrotation Xrotation Yrotation
												End site
												{
													OFFSET 0.00000 0.00000 0.00000
												}
											}
										}
									}
									JOINT LeftHandIndex1
									{
										OFFSET 14.26970 0.00000 2.88139
										CHANNELS 3 Zrotation Xrotation Yrotation
										JOINT LeftHandIndex2
										{
											OFFSET 5.48836 0.00000 0.00000
											CHANNELS 3 Zrotation Xrotation Yrotation
											JOINT LeftHandIndex3
											{
												OFFSET 3.01859 0.00000 0.00000
												CHANNELS 3 Zrotation Xrotation Yrotation
												End site
												{
													OFFSET 0.00000 0.00000 0.00000
												}
											}
										}
									}
									JOINT LeftHandMiddle1
									{
										OFFSET 14.26970 0.00000 -0.09147
										CHANNELS 3 Zrotation Xrotation Yrotation
										JOINT LeftHandMiddle2
										{
											OFFSET 6.17440 0.00000 0.00000
											CHANNELS 3 Zrotation Xrotation Yrotation
											JOINT LeftHandMiddle3
											{
												OFFSET 3.56744 0.00000 0.00000
												CHANNELS 3 Zrotation Xrotation Yrotation
												End site
												{
													OFFSET 0.00000 0.00000 0.00000
												}
											}
										}
									}
									JOINT LeftHandRing1
									{
										OFFSET 12.69180 0.00000 -3.06433
										CHANNELS 3 Zrotation Xrotation Yrotation
										JOINT LeftHandRing2
										{
											OFFSET 5.62556 0.00000 0.00000
											CHANNELS 3 Zrotation Xrotation Yrotation
											JOINT LeftHandRing3
											{
												OFFSET 3.56744 0.00000 0.00000
												CHANNELS 3 Zrotation Xrotation Yrotation
												End site
												{
													OFFSET 0.00000 0.00000 0.00000
												}
											}
										}
									}
									JOINT LeftHandPinky1
									{
										OFFSET 11.11390 0.00000 -6.03719
										CHANNELS 3 Zrotation Xrotation Yrotation
										JOINT LeftHandPinky2
										{
											OFFSET 4.52789 0.00000 0.00000
											CHANNELS 3 Zrotation Xrotation Yrotation
											JOINT LeftHandPinky3
											{
												OFFSET 2.46976 0.00000 0.00000
												CHANNELS 3 Zrotation Xrotation Yrotation
												End site
												{
													OFFSET 0.00000 0.00000 0.00000
												}
											}
										}
									}
								}
							}
						}
					}
					JOINT pCube4
					{
						OFFSET 0.00000 10.91090 1.10792
						CHANNELS 3 Zrotation Xrotation Yrotation
						End site
						{
							OFFSET 0.00000 0.00000 0.00000
						}
					}
				}
			}
		}
	}
	JOINT RightUpLeg
	{
		OFFSET -9.98441 0.00000 0.00000
		CHANNELS 3 Zrotation Xrotation Yrotation
		JOINT RightLeg
		{
			OFFSET 0.00000 -42.11790 0.00000
			CHANNELS 3 Zrotation Xrotation Yrotation
			JOINT RightFoot
			{
				OFFSET 0.00000 -45.00020 -0.00001
				CHANNELS 3 Zrotation Xrotation Yrotation
				JOINT RightForeFoot
				{
					OFFSET 0.00000 -3.74820 0.00000
					CHANNELS 3 Zrotation Xrotation Yrotation
					JOINT RightToeBase
					{
						OFFSET 0.00000 0.06325 14.43120
						CHANNELS 3 Zrotation Xrotation Yrotation
						End site
						{
							OFFSET 0.00000 0.00000 0.00000
						}
					}
				}
			}
		}
	}
	JOINT LeftUpLeg
	{
		OFFSET 9.98441 0.00000 0.00000
		CHANNELS 3 Zrotation Xrotation Yrotation
		JOINT LeftLeg
		{
			OFFSET 0.00000 -42.11800 0.00000
			CHANNELS 3 Zrotation Xrotation Yrotation
			JOINT LeftFoot
			{
				OFFSET 0.00000 -45.00070 0.00000
				CHANNELS 3 Zrotation Xrotation Yrotation
				JOINT LeftForeFoot
				{
					OFFSET 0.00000 -3.74824 0.00000
					CHANNELS 3 Zrotation Xrotation Yrotation
					JOINT LeftToeBase
					{
						OFFSET 0.00000 0.06325 14.43110
						CHANNELS 3 Zrotation Xrotation Yrotation
						End site
						{
							OFFSET 0.00000 0.00000 0.00000
						}
					}
				}
			}
		}
	}
}
MOTION
Frames: 4
Frame Time: 0.050000
0.0035904946998274383 -0.029503640937529642 -0.02868555416584951 0.010283166097214448 0.014919025878180156 -0.0014001782112993005 4.5373122035558815 2.4790536140052506 -2.0449929006414207 -0.7332772256781777 3.5404656376000454 0.3408123078482439 -0.6605547086868441 -1.14378098643972 1.5451538861106886 -0.01676272799676857 -0.3323543574492177 -0.22148644065372153 0.6994065361176717 11.871830983605522 -3.4228282513935655 0.26485801734723524 -0.6070655709955741 -9.235523229978366 1.4814677096505384 -16.973683343459978 -0.7764685987496839 -9.021293667928003 3.2244679357373784 -15.945898454420071 75.623750095297 21.300015484843687 15.641656937101413 32.97301839186031 9.290135232970302 87.48956195434695 18.825759751207833 -0.3628953823313761 -7.765069314729948 4.522973667127198 -0.07729463874787229 -1.6008945580440723 -0.030238790513821792 -0.033476773861889984 -56.23046755175922 -0.008629896649793148 -0.047399860558485885 -56.26818404748765 -38.75944567442313 -0.0024818831706848285 0.014660794063190052 -0.020785545991029396 0.004285058127057835 0.035802860606196224 -0.004316175788239849 -0.009074719526987069 0.01351076771636594 -36.73840775690533 -0.010435980442726542 -0.008335877766673125 -0.04515972996517771 0.02766562758583524 0.034548214795164595 0.04488757010624509 -0.0351581070589056 0.018364545384388052 -19.71166922545979 0.017399720408970615 -0.020392646750404413 -0.0047538599703945165 -0.004463940254101209 -0.014718476334077137 -0.0173333112658043 0.046070183163618224 -0.04562305310565638 24.096168466846567 -0.037891486876360424 -0.016544115860833757 28.83528423771371 0.049516427448618755 0.015863097365221488 28.867036283595425 -0.007806607967185361 -0.04037399051404954 8.107745268900981 2.092709507916873 13.825390677242188 -74.14458113755144 26.551234246872404 -10.267142896879912 -29.98617294203707 8.217148646909175 -80.65505833055826 -24.494408276261876 -8.45862766312073 6.0636847087107855 -0.4326116765073339 0.08381962644405364 -8.164419813557883 0.007315356461534243 0.04031179448923195 44.56552087254072 -0.042040179114171065 -0.03492459672407461 44.56194439367525 12.478093408340849 -0.04021275318698406 0.031963169194503385 0.0014932764215182686 -0.02981389688158689 0.0044165049705646425 -0.018856867898392554 0.006514235750209288 0.030020212867675776 11.070114272795465 0.020382798095061497 -0.026357257622128448 0.04551449428096343 0.03045601940202361 0.01877247952719017 -0.004549837184303833 0.02017698751577664 -0.040942428384780155 4.815248890642691 -0.020148426442795082 -0.04980846493184445 -0.049015308591959565 -0.0018312579922530564 -0.018297688358932057 0.02871197832825466 -0.0198448211825993 -0.04823930771252746 -5.594470182763742 0.0029893711019620575 -0.0049186605577929915 -6.722047804085398 -0.039827039935043496 -0.022830436685952644 -6.741264282161691 -0.01784491153126845 -0.03336616377569505 -0.0015609395324863902 0.04129940692311311 0.02906276186647197 8.037020273754598 3.4603041348667016 -19.202494496660183 0.024947245091560023 10.434531741934459 0.00024063613708878197 -5.643641950458198 -15.67320179253955 3.160023178843263 -0.018211116733414134 0.027912089869706093 0.04727937146072246 0.048555777889605564 4.688286700089354 -0.04557244914308208 12.481352794272162 -8.254051642246605 6.843189017030861 -0.0414424013243482 46.375792257254226 -0.007455851515118843 -4.30948924083462 -14.780576493536968 -3.838335666938249 0.022340121627695136 0.0024349279399668374 -0.04985853790732744 0.008055045609082585 -10.749210327939744 -0.02994259918336914 
0.03216424421120371 -7.234032930813155e-05 -0.026921778410793757 -0.046411143659445674 0.04699782524968196 -0.030080668949185492 4.620991822652747 2.4493613493795854 -2.139196067098429 -0.7263783131740722 3.56389360004728 0.43370441221368994 -0.6507755721965427 -1.1390850375592951 1.5442714631576193 -0.14550975333300628 -0.3466237915158508 -0.27125812834958296 0.723189637229634 11.990491684463997 -3.272285381451019 0.3633590762760247 -0.5179600363418448 -8.677750621297676 1.475124722140117 -16.83692824507476 -0.7606357748114461 -9.369071587565104 3.355442612609908 -16.22312312471869 77.04788198023516 19.835833405752513 15.316993158906728 27.584206482212025 8.099510197727895 87.53025384102406 18.381432474736787 -0.40977734120050113 -7.0029672742258615 4.549937761444169 -0.140132158103322 -1.632100460290676 -0.03182593689492168 -0.026387895887097224 -56.24693821072591 -0.006464294017425423 -0.046037199801617905 -56.20133997991972 -38.732561928691524 0.00034153586676343757 0.021452339317483228 -0.01927278996696867 0.01736429568475778 -0.003130769567733444 -0.028662943437891733 0.003135304465398214 0.0014785899445819927 -36.67320380051994 0.031392671363148224 -0.013491945841792877 -0.0067637085458225965 0.03265723322228741 0.026380975360076397 -0.019518721585219882 -0.038134190198185015 -0.00740787974404849 -19.797906070819806 -0.011743697383070201 -0.037669730605744765 -0.03509540592626773 0.009006537950523218 0.021813477226793613 -0.04671303252462255 -0.018209273699940524 -0.004654261974859204 24.0234833818779 -0.0026074680926323917 -0.019008796602461686 28.893580913059385 0.004310075812900979 -0.04678315811808831 28.851198676948478 -0.003260621845267599 -0.0482421309702602 8.492167671689524 2.135657099487007 14.003154272630955 -74.69355854818214 25.713759078411613 -10.641738042431601 -26.295778161187304 7.242597989112616 -78.52865346588857 -23.706812803655207 -8.053741899769344 5.732352625086357 -0.4871057752650106 0.0957100985654373 -8.103705978325191 0.017781743149338294 0.012912133815674952 44.613490225658715 0.0051143108818286235 -0.00944413277881528 44.58084952599125 12.438703411625715 0.00985920603328897 -0.009555676304427007 -0.03258502172752696 -0.01744136985099323 -0.003454618674124444 0.017742846593936754 -0.03958637774074082 -0.017590844743168674 11.118952624473254 -0.009169012342476184 -0.01657299212624808 -0.044096518239607384 0.017460889500872084 0.011705722556016696 -0.026999721025197605 0.013068205373870058 0.022710145942681934 4.772744533152424 0.016171593694019916 -0.002174377967880829 -0.04840570795701931 -0.026745603934962687 0.0014115545840735026 0.04222936689959916 -0.04826265402296741 0.019785445706617548 -5.60318755625959 -0.034641905096371724 -0.009890350441148452 -6.6910518975110564 0.017729365562342263 0.03336672676280999 -6.763586191054337 -0.03892052629308324 -0.0168422073194985 0.013574977476857633 -0.016998277977785407 0.04547604958901898 8.044622751377384 3.449403803017622 -19.200276250128848 -0.02299824100900501 10.348159848448812 0.020099116146230882 -5.613584583485086 -15.661961360803467 3.1587813330627768 0.011169656267127476 0.0332656456300228 0.016379042703052602 -0.010405428475416468 4.669235045812633 -0.02366692486854959 12.451233578297115 -8.270544833115272 6.919465912460897 0.010074603665076549 46.37132529083663 -0.04281400121260082 -4.367184246950027 -14.741827436259987 -3.8199376814788866 -0.03351463964418371 0.049453735005263844 -0.044688130868879745 0.029331777351276376 -10.772549013427568 -0.038754996032366935 
0.028714166758655943 -0.028067772924431113 0.04475471062069 -0.03008028730711317 -0.02475416205547115 -0.015846512832565152 4.74600915859281 2.371085086417865 -2.130621006700461 -0.6782439768559979 3.4956457378240473 0.3839561183554789 -0.6263917347964371 -1.1486093594519158 1.4769331843178874 -0.2140033381307001 -0.41507080721403417 -0.2095819771763315 0.6754803808021941 11.969956537885139 -3.0079175192675986 0.30241510780812747 -0.4843580363227566 -7.916801136528837 1.4726656155509597 -16.743691304345553 -0.7150874431995883 -9.609400242060214 3.360383851885264 -16.441001949830802 78.19809368702357 18.93715102816922 14.631179936654599 22.430604735351007 6.785522363821977 88.4720588179582 17.80513544954287 -0.4471086618818047 -6.218812002485373 4.550062614314355 -0.16288151306376245 -1.642653087624875 0.014190570046747362 0.0034244299496488575 -56.25957366043419 -0.005244505442466859 -0.006367652288957407 -56.192076014106156 -38.80514185873642 -0.04334901184215726 0.023226215445166336 0.00985776359151929 0.006127084233174777 0.02305582421130733 0.024837019495239317 -0.009590702753012445 0.02376447233931228 -36.72802392437775 -0.04837955824397702 0.024650641417690987 0.030346073461528473 0.045814075285639945 -0.007714925850987731 0.01494858781815494 -0.020211007325516513 -0.014253104494845114 -19.717986167668183 -0.026237730570084206 0.043867280643020264 -0.022601277630708114 -0.03782084860703318 -0.004203915406483355 0.04167919143384575 -0.014880937005575906 0.011132303971388272 24.09960603273562 0.016166393042488587 0.0161329364734337 28.884688103227738 -0.014769806388733686 0.0003264100152042472 28.888234452719953 0.024868356846583742 -0.04080318509287335 8.78939981664393 2.1993106975527827 14.18844625203552 -75.17559318771262 25.264542690993256 -10.61666541121383 -24.276786616539415 6.8309338524871475 -77.50414417808359 -23.004995906105783 -7.858626039377416 5.644985345222704 -0.4758599494685031 0.05701528696910701 -8.155121840350638 0.034705256443442314 0.03362297974508277 44.604276101240714 0.03792016450466706 0.018003595226526434 44.59004605581764 12.465040736360265 -0.04854145233252203 -0.009902135791188038 0.010124865566442364 -0.0008789931983563571 0.023263688244394447 -0.01735544747155168 -0.010787349627531355 0.044051631889258695 11.107878704116427 -0.006324383869750839 0.027594288974902223 -0.03252982590936094 -0.037787174926926244 0.026070969856179935 0.017584648838239233 -0.008994274182438219 0.017770882252115497 4.758086191750713 0.03030565780375833 0.01469078266873696 -0.021783298447759388 0.04119151126257853 -0.02843283541484317 -0.04390348306973142 -0.014305145533531701 0.004244164554916969 -5.619334320104906 -0.04445509806501899 -0.023280366909566495 -6.687543293409685 -0.02131998965597923 0.03331491787652468 -6.7405482994860915 0.009048303984292792 0.020299096548398104 0.04240918762818035 0.04630377558193845 -0.023085150697521865 7.995007492575512 3.5062029552926357 -19.23147719658059 -0.04862983733701776 10.391334271014498 0.0396208484966831 -5.599567349930516 -15.667482045557351 3.1943452664201133 -0.041999293822414734 0.02839016400856949 -0.029008665379128475 -0.03825946216011491 4.678899768564944 -0.0004203597859397679 12.411301082248357 -8.263321072393273 6.887641009395665 0.023252515800280284 46.38894267554717 0.010427447319880082 -4.352036344394146 -14.744779032271268 -3.8039211122621217 -0.011169881711372384 -0.002478830498194453 0.0003145578473478191 0.03712836460119038 -10.706854035349057 -0.03489757358451488 
-0.014198924482084247 -0.009377583394098714 -0.03738071391864194 -0.017851304854269383 0.03463524546037794 0.008873111779484546 4.77874864724578 2.266307110697788 -2.1712847887479074 -0.659387003804893 3.5059117374648876 0.38649726067259826 -0.6762257182079494 -1.2084814094240417 1.5212609232018746 -0.3136351130717185 -0.41304451150744304 -0.1882067178551479 0.5650469658553393 11.875364220386704 -2.756311306557442 0.3353862692445909 -0.42491783083994195 -7.060146276418783 1.4008869895020062 -16.6713126187425 -0.6205598140166564 -9.598234469881515 3.466682375802152 -16.711473788536367 79.34669966872974 18.998277285851753 13.5389176112084 17.5205659094567 5.217639538728033 89.97415315936476 17.229250527418724 -0.5079019635984888 -5.528369781486007 4.546494082423916 -0.0989409232917458 -1.5912733655754332 0.04010139503491649 0.015418203225695625 -56.199298989767286 -0.0339162212297156 -0.008821391986662715 -56.194048179026744 -38.749463327148476 0.010149118923032982 -0.032787185551728146 0.036273406996638856 -0.03731722371726469 -0.01082540401577028 -0.0025140464799862264 0.015834702093106594 0.016778980280750953 -36.66204179610724 0.01723791032264647 0.012086702101744536 0.015880609012168326 -0.023880471494549107 0.03740585622524085 -0.0028694787868391055 0.02847374302426284 0.039049334901282116 -19.72034527839182 0.04140445025306052 0.0449502631894496 -0.032861202754679734 -0.024000216819660674 0.03234423160012621 -0.021033320717785818 -0.04412842434713908 0.013616361025802983 24.03234275081591 0.007571785807598905 0.038774711071693856 28.8681845776858 -0.0222069755768512 0.04314185133256918 28.869679780346683 -0.04215774344054496 0.049258293174715646 8.995050778107 2.2341985859056104 14.326158223807052 -75.79258860570098 25.161800247413023 -10.379252829049918 -23.79276188741394 7.120426483038289 -77.57705873030349 -22.56812007764739 -7.999260587077751 5.706300458191221 -0.49162849298603895 0.06391999914632053 -8.166437540344447 0.018954716913832336 -0.01103202910315722 44.54630431023639 0.015202559059162374 -0.001941676433537177 44.589059559506886 12.480778977235063 -0.0167781280571127 -0.016705325833793895 0.030287769492666667 -0.014635869279190304 -0.014506302193074534 0.019034521019874354 0.007697013277772084 0.04214422598758351 11.114233335521646 -0.01128911604929855 -0.03856276512995605 -0.003314476616330967 -0.017645659518411683 0.026367341435739187 -0.027525797615415327 0.001791204500330309 0.035744163288476793 4.769690239193616 -0.046899198545498254 0.009749086933204174 0.042369319518807506 0.029610090551328246 -0.04793877198603222 0.006995743095465757 0.00196282247872532 -0.023745573382718016 -5.623375664315758 0.042772367380585236 -0.03621833609430541 -6.7700880399991386 -0.02286980050361195 0.022699130010745982 -6.7215329074134855 0.027661678207275206 0.005632472680850628 0.04229163444214433 -0.029236173931236793 0.00495504967905295 8.069443520527313 3.5070076634995777 -19.227667627733517 -0.015254725233451255 10.38118171320873 0.005822016864456886 -5.587172434188049 -15.657322111430286 3.2301854109399146 -0.013810947092877182 -0.030914421709278373 0.006832122865535675 0.03040074101189871 4.682636971139609 0.04242488154805483 12.479260196614247 -8.22674085696398 6.895546288315028 0.015358621500351248 46.41883689510303 -0.03541094584423021 -4.321560825791264 -14.748118045922675 -3.878575756166118 0.001717105117811687 -0.003047803558746412 -0.03762208882501541 -0.0066119682680922595 -10.732227245075107 -0.03883335695403889 
